<?xml version="1.0" standalone="no"?>
<!DOCTYPE svg PUBLIC "-//W3C//DTD SVG 20010904//EN"
 "http://www.w3.org/TR/2001/REC-SVG-20010904/DTD/svg10.dtd">
<svg version="1.0" xmlns="http://www.w3.org/2000/svg"
 width="512.000000pt" height="512.000000pt" viewBox="0 0 512.000000 512.000000"
 preserveAspectRatio="xMidYMid meet">
<metadata>
Created by potrace 1.11, written by Peter Selinger 2001-2013
</metadata>
<g transform="translate(0.000000,512.000000) scale(0.100000,-0.100000)"
fill="#000000" stroke="none">
<path d="M0 2560 l0 -2560 2560 0 2560 0 0 2560 0 2560 -2560 0 -2560 0 0
-2560z m2072 1870 c46 -13 92 -50 107 -89 7 -16 31 -186 55 -377 l42 -349 -66
-8 c-71 -8 -144 -29 -203 -59 -22 -11 -41 -17 -43 -15 -3 2 -25 172 -50 378
-42 354 -44 376 -29 415 19 50 51 81 102 99 47 17 41 17 85 5z m1484 -1732
c-3 -35 -8 -111 -12 -170 l-6 -108 -557 0 -556 0 -392 -392 c-216 -216 -394
-390 -396 -388 -2 3 -14 167 -26 365 -12 198 -26 398 -31 445 -5 47 -12 136
-16 198 l-6 112 1002 0 1002 0 -6 -62z m-801 -392 c85 -42 157 -109 198 -184
178 -328 -89 -713 -460 -661 -260 36 -434 299 -368 554 33 124 116 230 226
285 83 42 120 50 231 46 90 -3 104 -6 173 -40z m715 -958 c0 -7 -9 -148 -20
-313 -11 -165 -20 -310 -20 -322 l0 -23 -870 0 c-822 0 -870 1 -870 18 0 9 -9
152 -20 317 -11 165 -20 308 -20 318 0 16 50 17 910 17 721 0 910 -3 910 -12z"/>
<path d="M2483 2231 c-158 -54 -256 -196 -257 -371 0 -71 4 -94 26 -142 27
-58 94 -132 130 -144 27 -8 65 29 78 77 7 25 7 53 -1 89 -23 109 11 177 117
232 57 29 73 43 92 81 23 44 23 49 12 116 -11 56 -17 70 -34 75 -40 11 -111 5
-163 -13z"/>
<path d="M2715 2149 c6 -66 4 -79 -17 -119 -20 -36 -38 -52 -97 -84 -103 -55
-114 -75 -106 -198 7 -99 -1 -133 -42 -180 -14 -15 -12 -17 22 -24 91 -17 222
33 295 112 23 25 56 75 73 112 29 61 32 76 32 162 0 83 -3 102 -27 150 -28 56
-60 93 -111 125 l-28 18 6 -74z"/>
</g>
</svg>
